<?xml version="1.0" standalone="no"?>
<!DOCTYPE svg PUBLIC "-//W3C//DTD SVG 20010904//EN"
 "http://www.w3.org/TR/2001/REC-SVG-20010904/DTD/svg10.dtd">
<svg version="1.0" xmlns="http://www.w3.org/2000/svg"
 width="880.000000pt" height="866.000000pt" viewBox="0 0 880.000000 866.000000"
 preserveAspectRatio="xMidYMid meet">
<metadata>
Created by potrace 1.16, written by Peter Selinger 2001-2019
</metadata>
<g transform="translate(0.000000,866.000000) scale(0.100000,-0.100000)"
fill="#000000" stroke="none">
<path d="M3268 7367 c-652 -485 -1565 -1163 -2027 -1506 -561 -416 -838 -627
-833 -635 5 -6 64 -84 131 -174 85 -114 126 -160 135 -155 12 7 1085 803 2996
2221 435 323 792 581 800 579 9 -2 502 -355 1095 -784 594 -429 1339 -966
1655 -1194 316 -229 657 -475 757 -547 l182 -131 120 172 c110 160 118 173
103 188 -10 9 -390 288 -847 620 -780 566 -2364 1719 -2847 2071 -119 87 -221
158 -225 157 -4 0 -542 -397 -1195 -882z"/>
<path d="M1670 3000 l0 -2240 2785 0 2785 0 0 2230 0 2230 -217 -2 -218 -3 -3
-2012 -2 -2013 -555 0 -555 0 0 1880 0 1880 -1245 0 -1245 0 -2 -1877 -3
-1878 -542 -3 -543 -2 -2 2022 -3 2023 -217 3 -218 2 0 -2240z m3578 -148 l2
-1662 -804 0 c-724 0 -804 2 -810 16 -11 28 -7 3289 4 3300 7 7 287 10 808 9
l797 -1 3 -1662z"/>
</g>
</svg>
