<?xml version="1.0" standalone="no"?>
<!DOCTYPE svg PUBLIC "-//W3C//DTD SVG 20010904//EN"
 "http://www.w3.org/TR/2001/REC-SVG-20010904/DTD/svg10.dtd">
<svg version="1.0" xmlns="http://www.w3.org/2000/svg"
 width="1000.000000pt" height="1000.000000pt" viewBox="0 0 1000.000000 1000.000000"
 preserveAspectRatio="xMidYMid meet">
<metadata>
Created by potrace 1.16, written by Peter Selinger 2001-2019
</metadata>
<g transform="translate(0.000000,1000.000000) scale(0.100000,-0.100000)"
fill="#000000" stroke="none">
<path d="M2927 9690 c-20 -6 -55 -19 -77 -30 -52 -27 -132 -30 -290 -13 -158
18 -403 19 -500 4 -187 -30 -361 -99 -560 -222 -160 -99 -230 -136 -327 -173
-280 -107 -473 -253 -587 -445 -90 -153 -120 -248 -156 -495 -7 -44 -22 -111
-35 -150 -13 -39 -35 -118 -50 -175 -30 -123 -88 -250 -213 -463 -49 -84 -99
-172 -111 -195 l-21 -42 0 -3646 0 -3645 1303 1 c716 1 1313 4 1326 8 22 6 21
9 -30 52 -30 25 -105 84 -166 132 -218 170 -485 422 -694 655 -117 130 -255
306 -285 363 -14 29 -14 29 13 29 16 0 145 -13 288 -29 391 -44 675 -96 780
-141 28 -12 72 -31 100 -42 l49 -19 -19 21 c-33 37 -185 131 -243 152 -67 23
-211 43 -427 58 -321 22 -580 41 -582 44 -14 13 -86 233 -90 273 l-6 51 49 25
c27 13 108 46 179 72 255 93 455 203 539 296 73 81 80 104 84 271 2 82 7 148
11 148 4 0 61 -39 127 -86 217 -156 317 -203 506 -235 104 -18 149 -20 298
-16 308 9 460 63 723 258 59 44 82 57 88 47 4 -7 12 -70 18 -141 13 -149 25
-185 89 -251 107 -111 390 -255 639 -326 99 -28 117 -45 116 -106 -1 -58 -41
-180 -77 -234 -29 -44 -37 -46 -261 -55 -279 -11 -496 -33 -636 -66 -88 -20
-180 -71 -269 -149 l-35 -31 60 27 c127 55 214 79 430 118 330 60 644 92 659
68 15 -24 -130 -224 -291 -404 -179 -200 -505 -507 -703 -663 -41 -33 -102
-82 -134 -110 l-60 -50 125 -5 c68 -3 507 -7 974 -8 757 -2 1065 5 1083 23 21
21 128 1100 133 1340 1 50 4 109 7 132 l4 42 237 -118 c272 -136 401 -194 628
-279 458 -174 1169 -355 1968 -502 318 -59 405 -77 405 -84 0 -2 -20 -61 -45
-130 -65 -184 -59 -217 10 -56 127 294 377 1035 411 1215 3 19 10 35 14 35 4
0 10 -264 13 -587 4 -443 10 -618 21 -708 9 -66 19 -166 22 -223 l7 -102 258
0 259 0 0 4045 0 4045 -57 108 c-381 720 -879 1185 -1441 1342 -189 54 -545
77 -680 45 -46 -11 -178 -18 -490 -25 -235 -6 -449 -14 -477 -19 -167 -30
-409 -113 -579 -198 -233 -117 -416 -255 -658 -498 -110 -111 -158 -152 -158
-139 0 22 -86 131 -159 202 -62 60 -188 154 -267 198 -146 82 -274 131 -644
249 -141 45 -236 94 -360 185 l-94 70 -296 -1 c-235 -1 -305 1 -345 13 -27 8
-90 27 -139 42 -104 31 -176 39 -229 26z m5008 -1660 c234 -20 418 -73 577
-166 146 -86 398 -324 506 -477 87 -123 165 -305 232 -539 38 -134 86 -356 78
-364 -2 -2 -58 23 -124 56 -81 40 -144 64 -196 75 -90 17 -282 20 -393 4 -171
-23 -555 -136 -702 -205 -62 -30 -88 -62 -78 -96 27 -87 99 -81 509 43 393
119 585 149 737 115 128 -28 221 -82 254 -146 26 -51 57 -300 85 -673 59 -803
63 -1136 17 -1352 -87 -410 -147 -542 -338 -753 -241 -265 -777 -670 -999
-753 -165 -62 -356 -91 -610 -92 -222 -1 -386 18 -513 60 -270 89 -895 554
-1114 829 -185 231 -250 403 -277 729 -58 693 -68 1642 -21 2035 51 432 173
738 424 1060 176 227 391 382 695 504 205 83 338 105 681 114 274 8 399 6 570
-8z m-4541 -294 c103 -320 201 -479 499 -808 58 -64 139 -159 180 -210 70 -87
177 -243 177 -257 0 -3 -78 -24 -172 -45 -253 -58 -333 -74 -428 -86 -111 -15
-146 -26 -169 -56 -41 -53 3 -75 158 -82 l114 -5 -109 -31 c-176 -52 -283
-102 -377 -178 -27 -22 -37 -23 -195 -23 -186 0 -176 -3 -328 88 -38 23 -118
60 -177 81 -59 22 -106 41 -104 42 2 2 30 6 62 9 33 4 70 13 83 21 25 16 29
55 8 73 -19 16 -96 37 -206 56 -52 9 -194 41 -315 70 -271 66 -332 77 -465 77
-122 1 -181 -13 -313 -74 -60 -27 -92 -37 -99 -30 -13 13 3 64 52 163 171 348
530 610 1215 888 278 113 447 188 516 231 139 85 309 238 309 278 1 42 32 -30
84 -192z m-1619 -1401 c66 -14 170 -42 230 -62 l110 -37 -265 -13 c-281 -13
-547 -30 -617 -40 l-43 -6 0 35 c0 49 36 75 184 134 55 22 71 24 171 19 61 -2
164 -16 230 -30z m272 -226 c70 -5 169 -17 219 -24 234 -37 439 -155 505 -291
85 -177 -33 -556 -256 -817 -117 -137 -249 -224 -389 -254 -96 -21 -340 -20
-465 2 -237 41 -371 124 -481 297 l-46 72 58 146 c84 213 92 250 85 405 -5
123 -5 129 11 109 9 -12 46 -59 82 -104 168 -215 324 -279 645 -266 202 8 382
37 574 92 l54 15 -69 70 c-102 103 -236 185 -394 240 -67 24 -210 36 -586 48
-331 12 -343 14 -368 86 -8 26 -14 51 -11 55 14 22 282 107 377 119 93 12 309
12 455 0z m2301 -1 c7 -7 12 -28 12 -47 0 -20 7 -74 15 -121 8 -47 15 -86 15
-86 0 -1 -48 -4 -107 -8 -273 -18 -470 -75 -630 -184 -67 -45 -171 -159 -157
-171 14 -12 197 -58 299 -75 91 -15 232 -30 407 -42 111 -7 103 1 113 -119 7
-88 41 -258 80 -404 31 -117 31 -129 -1 -141 -59 -23 -311 -3 -468 36 -207 52
-416 282 -535 589 -118 304 -88 488 102 617 107 73 289 133 472 157 110 14
369 13 383 -1z m528 -105 c95 -46 162 -133 200 -258 27 -90 25 -272 -5 -390
-67 -260 -204 -476 -350 -549 -29 -15 -54 -26 -55 -24 -2 2 -12 62 -22 133
-23 156 -23 363 -1 482 20 108 51 174 147 310 44 62 80 119 80 128 0 12 -13
15 -63 15 -93 0 -101 9 -86 94 7 40 19 76 30 87 21 21 30 19 125 -28z m-1701
-314 c7 -8 29 -77 50 -154 62 -235 122 -374 227 -527 108 -158 244 -276 394
-342 98 -43 107 -44 374 -55 118 -5 223 -12 233 -16 25 -10 32 -47 30 -165 -1
-133 -22 -256 -83 -495 -52 -204 -75 -319 -86 -430 -4 -48 -3 -67 4 -60 18 18
287 557 324 651 52 130 68 219 68 386 0 182 7 208 62 235 24 11 72 43 108 71
l65 51 3 -62 c5 -84 -15 -326 -33 -425 -9 -45 -29 -122 -45 -171 -17 -50 -30
-104 -30 -121 0 -142 -255 -482 -695 -925 -303 -304 -601 -518 -775 -555 -138
-29 -527 -20 -658 14 -116 31 -265 121 -432 260 -280 233 -678 653 -821 865
-48 72 -50 76 -44 126 6 41 3 58 -10 79 -21 32 -17 64 24 176 66 182 29 347
-133 584 l-68 98 44 -27 c69 -43 157 -81 239 -104 228 -64 585 -57 759 13 153
62 296 187 408 354 105 158 145 256 237 586 9 32 28 69 41 83 25 25 30 25 116
21 57 -4 94 -11 103 -19z m5243 -2866 c-4 -32 -10 -173 -14 -313 -7 -286 -7
-290 63 -379 109 -138 372 -271 757 -381 92 -27 170 -51 173 -53 15 -16 -182
-632 -288 -902 -77 -193 -80 -198 -127 -189 -151 27 -635 135 -1074 240 -711
169 -1320 369 -1770 580 -308 144 -362 183 -356 258 4 53 29 70 200 131 323
115 516 239 590 377 22 41 23 52 22 238 0 107 -6 251 -13 318 -7 68 -10 127
-6 130 3 3 60 -22 128 -56 262 -132 420 -166 777 -166 344 0 539 30 736 114
50 22 103 42 118 46 15 3 38 22 53 40 14 19 28 32 32 29 4 -2 4 -30 -1 -62z"/>
<path d="M6045 6634 c-180 -30 -322 -111 -404 -233 -77 -114 -76 -126 9 -56
67 56 171 106 265 130 115 29 303 10 525 -51 30 -9 143 -43 249 -76 226 -69
304 -88 382 -88 69 0 93 16 93 63 0 45 -12 59 -82 92 -153 74 -432 156 -657
195 -118 21 -321 33 -380 24z"/>
<path d="M6010 6093 c0 -6 39 -21 86 -33 77 -21 84 -25 63 -34 -13 -5 -95 -10
-181 -11 -87 0 -158 -3 -158 -7 0 -5 5 -8 10 -8 6 0 10 -5 10 -11 0 -7 -22 -8
-67 -4 l-68 7 23 -25 c37 -39 26 -61 -31 -67 l-49 -5 34 -19 c18 -10 89 -74
158 -140 163 -159 271 -219 418 -232 84 -8 304 11 437 36 114 22 365 99 365
112 0 11 -33 39 -114 95 -81 56 -96 79 -45 68 118 -26 -156 116 -337 174 -223
72 -554 134 -554 104z"/>
<path d="M8818 6085 c-264 -36 -683 -187 -762 -274 -26 -28 -6 -27 55 5 139
70 -3 -45 -190 -154 -14 -8 227 -84 389 -121 344 -81 625 -34 792 132 35 34
82 85 106 114 24 30 61 61 85 72 23 11 53 29 67 40 l25 21 -45 -6 c-48 -7 -48
-7 -67 -5 -20 2 -15 32 10 59 l22 24 -67 -7 c-46 -4 -68 -3 -68 4 0 6 5 11 10
11 6 0 10 4 10 8 0 4 -71 8 -157 8 -92 -1 -168 4 -182 10 -23 10 -20 12 43 34
51 18 63 26 49 31 -10 4 -20 7 -23 7 -3 0 -49 -6 -102 -13z"/>
<path d="M7085 3979 c-263 -9 -335 -25 -335 -75 0 -86 260 -333 436 -414 103
-48 178 -64 304 -64 136 0 211 17 325 74 226 111 467 361 425 440 -14 25 -63
30 -455 40 -381 10 -405 10 -700 -1z m115 -116 c200 -41 344 -42 563 -4 265
46 306 42 235 -26 -78 -74 -278 -150 -428 -162 -247 -21 -539 66 -616 184 -35
54 12 56 246 8z"/>
<path d="M2401 3812 c-25 -18 -3 -58 73 -130 129 -122 279 -212 416 -249 80
-21 270 -24 350 -4 70 17 195 76 285 136 76 50 155 122 155 141 0 18 -80 42
-231 69 -116 22 -1024 53 -1048 37z"/>
</g>
</svg>
