<?xml version="1.0" standalone="no"?>
<!DOCTYPE svg PUBLIC "-//W3C//DTD SVG 20010904//EN"
 "http://www.w3.org/TR/2001/REC-SVG-20010904/DTD/svg10.dtd">
<svg version="1.0" xmlns="http://www.w3.org/2000/svg"
 width="400.000000pt" height="400.000000pt" viewBox="0 0 400.000000 400.000000"
 preserveAspectRatio="xMidYMid meet">
<metadata>
Created by potrace 1.16, written by Peter Selinger 2001-2019
</metadata>
<g transform="translate(0.000000,400.000000) scale(0.100000,-0.100000)"
fill="#000000" stroke="none">
<path d="M1917 3864 c-24 -13 -43 -14 -140 -3 -168 18 -275 -7 -410 -95 -38
-25 -85 -50 -105 -57 -72 -23 -154 -71 -199 -115 -56 -57 -103 -154 -110 -231
-2 -32 -11 -76 -19 -97 -9 -22 -19 -61 -24 -87 -6 -30 -35 -91 -79 -163 -71
-118 -85 -160 -110 -316 -6 -36 -11 -108 -11 -161 0 -88 -3 -102 -34 -170 -40
-88 -66 -196 -66 -276 0 -78 19 -161 74 -330 l47 -141 -21 -73 c-24 -88 -26
-193 -4 -269 27 -93 26 -102 -11 -219 -46 -147 -65 -268 -65 -413 l0 -117 -44
-30 c-100 -69 -180 -197 -215 -346 -28 -116 -32 -155 -17 -155 8 0 17 27 24
73 18 119 49 202 105 283 29 42 73 91 98 110 l46 34 23 -250 24 -250 583 0
c321 0 583 2 583 3 0 2 -37 32 -82 67 -146 113 -326 297 -392 401 l-17 27 48
-5 c216 -22 343 -43 396 -66 31 -14 57 -24 57 -22 0 3 -25 21 -54 41 -59 39
-66 40 -368 60 l-87 6 -21 55 c-11 31 -20 63 -18 71 2 8 38 26 83 41 110 37
202 88 233 130 23 29 27 44 26 98 0 35 1 63 3 63 1 0 24 -16 50 -36 91 -69
157 -95 257 -101 147 -9 241 17 340 93 24 18 47 34 49 34 3 0 7 -29 9 -65 3
-58 8 -69 38 -101 39 -40 144 -94 237 -121 58 -16 63 -20 63 -46 0 -33 -26
-98 -43 -109 -7 -4 -45 -8 -85 -8 -104 0 -262 -19 -297 -36 -16 -8 -43 -25
-60 -39 l-30 -25 56 25 c72 32 409 81 409 60 0 -4 -21 -37 -47 -74 -58 -82
-230 -254 -345 -345 -49 -38 -88 -71 -88 -73 0 -1 240 -3 533 -3 l532 0 -4
146 c-3 119 14 404 24 404 15 0 125 -57 163 -85 50 -35 114 -112 145 -172 22
-42 67 -199 67 -233 0 -35 9 -60 22 -60 13 0 2 84 -23 180 -45 167 -136 283
-282 355 l-90 46 -4 112 c-4 126 -24 267 -53 373 l-19 71 24 59 c29 70 32 148
10 234 -15 58 -15 59 20 169 56 178 69 259 62 386 -4 60 -10 124 -15 140 -6
20 -4 48 6 85 34 123 14 282 -52 426 -24 51 -35 92 -40 150 -14 156 -65 351
-116 441 -5 10 -23 60 -40 111 -67 206 -187 310 -445 387 -106 31 -135 45
-193 88 l-44 32 -117 -3 c-96 -2 -127 1 -175 18 -70 24 -101 25 -139 4z m223
-791 c31 -101 78 -175 187 -295 52 -56 107 -124 122 -149 l29 -46 -113 -26
c-62 -15 -126 -27 -142 -27 -16 0 -38 -6 -49 -14 -31 -24 -3 -41 64 -40 51 2
53 1 21 -6 -66 -16 -146 -50 -164 -70 -15 -17 -31 -20 -92 -20 -63 0 -79 4
-106 24 -18 13 -59 34 -92 45 -58 20 -59 20 -22 21 25 0 40 5 44 16 8 22 -9
31 -86 44 -37 6 -108 22 -160 36 -123 32 -202 32 -266 -1 -27 -13 -51 -22 -53
-20 -10 10 32 98 68 144 80 101 220 191 422 271 73 29 163 68 201 87 64 32
146 102 148 127 1 16 14 -18 39 -101z m-590 -555 l75 -24 -160 -7 c-88 -4
-172 -10 -187 -13 -23 -5 -28 -3 -28 13 0 18 22 32 90 57 29 11 136 -2 210
-26z m190 -97 c80 -25 136 -69 151 -120 25 -84 -41 -250 -135 -339 -71 -68
-135 -87 -260 -79 -118 8 -198 45 -239 111 l-28 44 32 79 c26 65 30 88 27 138
l-5 59 21 -29 c52 -74 103 -113 163 -125 70 -15 200 -7 297 18 l69 18 -35 37
c-19 20 -65 51 -102 68 -65 31 -72 32 -242 37 -174 5 -176 5 -185 29 -5 13 -9
26 -9 28 0 6 84 35 130 45 76 16 276 5 350 -19z m780 5 c0 -13 3 -37 6 -54 l6
-30 -86 -7 c-103 -9 -205 -52 -250 -106 l-28 -33 68 -18 c38 -10 112 -21 165
-24 l96 -7 6 -61 c3 -34 15 -90 26 -126 12 -38 17 -68 11 -74 -16 -16 -171 -1
-221 21 -87 39 -169 150 -205 279 -21 76 -13 123 27 168 48 56 171 94 307 95
69 1 72 0 72 -23z m208 -25 c70 -36 101 -125 82 -232 -20 -109 -79 -213 -140
-244 l-28 -14 -11 77 c-8 55 -9 99 -1 149 9 70 16 84 89 184 12 18 11 19 -23
19 -39 0 -39 1 -30 49 8 36 12 37 62 12z m-681 -125 c3 -2 13 -39 24 -81 36
-147 124 -271 226 -321 50 -25 68 -28 157 -29 56 0 104 -4 108 -10 18 -24 7
-145 -22 -246 -17 -57 -33 -131 -36 -164 l-7 -60 67 129 c88 171 98 204 97
303 -1 73 1 82 19 88 11 4 33 17 49 31 l29 24 -5 -102 c-4 -65 -13 -121 -24
-151 -11 -26 -19 -60 -19 -75 0 -49 -116 -199 -281 -364 -103 -103 -203 -178
-279 -209 -53 -21 -252 -19 -309 4 -76 31 -163 98 -276 211 -146 147 -240 263
-225 281 8 10 8 19 -2 34 -10 17 -9 26 5 56 34 71 20 149 -44 242 l-33 47 35
-22 c95 -58 300 -68 401 -19 64 31 115 82 163 162 33 55 46 90 75 202 6 24 17
44 28 46 17 5 72 0 79 -7z"/>
<path d="M1730 1517 c0 -22 84 -93 148 -124 80 -39 175 -39 252 0 63 32 128
82 118 92 -14 14 -137 36 -203 35 -38 0 -125 2 -192 6 -105 5 -123 4 -123 -9z"/>
</g>
</svg>
